<?xml version="1.0" encoding="utf-8"?>
<!-- Generator: Adobe Illustrator 21.0.0, SVG Export Plug-In . SVG Version: 6.00 Build 0)  -->
<svg version="1.1" id="Layer_1" xmlns="http://www.w3.org/2000/svg" xmlns:xlink="http://www.w3.org/1999/xlink" x="0px" y="0px"
	 viewBox="0 0 556 209" style="enable-background:new 0 0 556 209;" xml:space="preserve">
<style type="text/css">
	.st0{fill:#F79421;}
	.st1{fill:#E35725;}
	.st2{fill:#E09426;}
	.st3{opacity:0.4;fill:#E09426;}
	.st4{fill:#E6BB84;}
	.st5{fill:#4E301B;}
	.st6{opacity:0.4;fill:#FFFFFF;}
	.st7{opacity:0.4;fill:#4E301B;}
	.st8{fill:#653413;}
	.st9{fill:#3A7D3C;}
	.st10{fill:#8FC640;}
	.st11{fill:#55B948;}
	.st12{opacity:0.4;fill:#8FC640;}
	.st13{fill:#74C167;}
	.st14{fill:#439644;}
	.st15{fill:#F4A11F;}
	.st16{fill:#FFC713;}
	.st17{fill:#FFFFFF;}
	.st18{opacity:0.4;fill:#FFC713;}
	.st19{fill:#AC1D37;}
	.st20{opacity:0.4;fill:#EB214A;}
	.st21{opacity:0.4;fill:#821427;}
	.st22{fill:#EB214A;}
	.st23{fill:#9C1E5C;}
	.st24{opacity:0.4;fill:#9C1E5C;}
	.st25{fill:#D65CA1;}
	.st26{opacity:0.6;fill:#DB753A;}
	.st27{fill:#F7F5BC;}
	.st28{fill:#4E3413;}
	.st29{fill:#F9A12B;}
	.st30{fill:#D85027;}
	.st31{fill:url(#SVGID_1_);}
	.st32{fill:#383635;}
	.st33{fill:url(#SVGID_2_);}
</style>
<g>
	<g>
		<path class="st29" d="M135.5,81c-19.6-0.6-39.2-1.1-58.8-1.7C65.3,79,61.5,73.9,64.3,62.8c8.2-33.3,39.3-56.6,74-55.6
			c34.4,1.1,63.9,26.2,70.1,59.7c2.1,11.2-2,16.1-13.4,15.8C175.2,82.2,155.3,81.6,135.5,81z"/>
		<path class="st28" d="M136.2,113.9c22.3,0.2,44.5,0.4,66.8,0.7c6.3,0.1,11,2.9,13.3,8.8c2,5.1,1.5,10.4-2.8,14
			c-2.9,2.4-7.1,4.4-10.8,4.4c-44.5-0.1-89-0.6-133.5-1.2c-8.8-0.1-14.4-6-14.1-14.1c0.2-7.9,6.1-13.2,15-13.2
			C92.1,113.4,114.1,113.7,136.2,113.9z"/>
		<path class="st30" d="M74.7,98.7c5.8-1.3,12.6,6.3,17.4,1.4c5.1-5.3,8.9-5.7,14.9-1.3c3.8,2.8,6.3,2,9.4-1.1
			c4.7-4.9,8.9-5.4,14.5-1.2c4,3,6.6,2.2,9.8-1.2c4.4-4.6,8.8-5,14-1.2c3.8,2.8,6.5,2.8,9.9-0.8c4.7-5,8.9-5.3,14.5-1.2
			c3.6,2.6,6.2,2.6,9.4-0.8c3.4-3.6,7.6-4.3,12.2-2.9c2.2,0.7,6.6,2.7,7.9,4.7c2.7,4.4-2.8,4-6,2c-1.5-0.9-3-1.9-4.7-2.2
			c-5-0.8-6.9,4.3-10.8,5.9c-3.9,1.6-7.2-0.1-10.5-2.4c-3.5-2.5-6-2.1-8.9,0.9c-5.3,5.4-8.8,5.8-14.9,1.4c-3.7-2.7-6.3-2.3-9.4,0.9
			c-5.1,5.3-8.6,5.5-14.9,1.1c-3.5-2.4-5.9-2.2-8.9,0.9c-5.5,5.6-8.6,5.8-15.4,1.2c-3.3-2.2-5.6-2-8.5,0.8
			c-3.5,3.5-6.6,4.6-11.2,3.2c-2.8-0.9-6.5-3.6-9.8-2.9c-3.6,0.7-4.9,5.2-8.9,5.3c-1.2,0-2.6-0.6-2.6-1.8c0-0.6,0.3-1.1,0.7-1.6
			C66.2,102.8,70.5,99.7,74.7,98.7z"/>
		<g>
			<g>
				<radialGradient id="SVGID_1_" cx="112.3859" cy="44.9664" r="105.3202" gradientUnits="userSpaceOnUse">
					<stop  offset="4.950495e-03" style="stop-color:#FFFFFF"/>
					<stop  offset="1" style="stop-color:#383635"/>
				</radialGradient>
				<path class="st31" d="M122.1,45c0,5.4-4.3,9.7-9.7,9.7c-5.4,0-9.7-4.3-9.7-9.7c0-5.3,4.2-9.5,9.4-9.7c0.1,0,0.2,0,0.3,0
					c4.4,0,8.2,3,9.3,7C122,43.1,122.1,44,122.1,45z"/>
				<g>
					<path class="st32" d="M116.8,48c0,3.5-2,6.4-4.4,6.4c-2.4,0-4.4-2.8-4.4-6.4c0-3.5,2-6.4,4.4-6.4c0.5,0,0.9,0.1,1.3,0.3h0
						c0.1,0,0.1,0,0.2,0.1c1.2,0.7,2.2,2.1,2.6,3.9c0,0.1,0,0.1,0.1,0.2C116.7,46.8,116.8,47.4,116.8,48z"/>
					<path class="st17" d="M116.6,46.2c-0.4,0.7-0.9,1.1-1.6,1.1c-1.1,0-2.1-1.3-2.1-3c0-1,0.3-1.8,0.8-2.4h0c0.1,0,0.1,0,0.2,0.1
						c1.2,0.7,2.2,2.1,2.6,3.9C116.6,46.1,116.6,46.1,116.6,46.2z"/>
				</g>
			</g>
			<g>
				<radialGradient id="SVGID_2_" cx="159.9162" cy="44.9664" r="105.3202" gradientUnits="userSpaceOnUse">
					<stop  offset="4.950495e-03" style="stop-color:#FFFFFF"/>
					<stop  offset="1" style="stop-color:#383635"/>
				</radialGradient>
				<path class="st33" d="M169.6,45c0,5.4-4.3,9.7-9.7,9.7c-5.4,0-9.7-4.3-9.7-9.7c0-5.3,4.2-9.5,9.4-9.7c0.1,0,0.2,0,0.3,0
					c4.4,0,8.2,3,9.3,7C169.5,43.1,169.6,44,169.6,45z"/>
				<g>
					<path class="st32" d="M164.3,48c0,3.5-2,6.4-4.4,6.4s-4.4-2.8-4.4-6.4c0-3.5,2-6.4,4.4-6.4c0.5,0,0.9,0.1,1.3,0.3h0
						c0.1,0,0.1,0,0.2,0.1c1.2,0.7,2.2,2.1,2.6,3.9c0,0.1,0,0.1,0.1,0.2C164.2,46.8,164.3,47.4,164.3,48z"/>
					<path class="st17" d="M164.1,46.2c-0.4,0.7-0.9,1.1-1.6,1.1c-1.1,0-2.1-1.3-2.1-3c0-1,0.3-1.8,0.8-2.4h0c0.1,0,0.1,0,0.2,0.1
						c1.2,0.7,2.2,2.1,2.6,3.9C164.1,46.1,164.1,46.1,164.1,46.2z"/>
				</g>
			</g>
		</g>
		<g>
			<path class="st29" d="M133.5,191.9c-14-1.4-27.9-2.7-41.9-4.1c-5.2-0.5-10.4-1-15.3-2.8c-4.9-1.8-9.5-5-11.8-9.6
				c-2.7-5.2-2.2-11.4-1.7-17.3c0.3-3.5,0.7-8.2,3.3-10.9c3.1-3.1,8.7-2.3,12.7-1.9c23.3,2.3,46.6,4.7,69.9,7c2.5,0.3,5.1,0.6,7,2.2
				c3.1,2.6,3,7.3,2.2,11.2c-0.7,3.9-1.8,8.3,0.2,11.8c2.3,4.2,8.9,5,12.2,1.6c3.7-3.8,2.6-10.2,5.1-14.9c1.4-2.6,4.4-1.4,4.9,1.3
				c0.3,1.8-0.2,3.6,0.1,5.4c0.4,2.1,2.2,3.8,4.3,4.3c2.1,0.4,4.4-0.5,5.6-2.3c2.3-3.3,0.4-8.2,2.4-11.6c1.2-2.1,3.6-3.2,6-3.5
				c2.4-0.3,4.8,0.2,7.1,0.8c0.8,0.2,1.7,0.4,2.4,1c1.1,0.9,1.3,2.5,1.4,3.9c0.4,5.2,0.7,10.4-0.4,15.5c-1,5.1-3.5,10-7.6,13.2
				c-6.8,5.3-16.3,4.7-24.9,3.9C162.3,194.8,147.9,193.3,133.5,191.9z"/>
			<path class="st28" d="M98.4,165.1c-5.9,0.4-11.6,1.9-17.5,1.1c4.9-2.5,10.1-3.8,15.4-4.3c9.3-0.9,18.4,0.6,27.4,2.5
				c5.2,1.1,10.2,3,15.2,4.7c1.9,0.6,3.7,1.6,4.4,4.1c-5.9-2.8-11.5-5.9-18.1-6.3c-0.7,4.2-1.3,8.3-2,12.3c-1.3,7-3.4,13.6-8.2,19.2
				c-3.9,4.7-11.4,4.1-14.4-1.3c-2.5-4.5-3.5-9.5-3.6-14.6c-0.1-3.7,0.1-7.5,0.4-11.2C97.5,169.5,98,167.5,98.4,165.1z"/>
		</g>
	</g>
	<g>
		<g>
			<path d="M283.4,43.8c5.5,1.5,10,3.3,13.4,5.5c3.4,2.2,6,4.5,7.9,7.1c1.8,2.5,3.1,5.2,3.6,7.9c0.6,2.7,0.8,5.3,0.7,7.9
				c-0.1,2-0.4,3.9-0.7,5.7c-0.4,1.8-0.8,3.3-1.2,4.7c-0.7,2.2-1.7,4.4-2.9,6.5c-1.2,2.1-2.5,4.1-3.9,6c-1.4,1.9-3,3.7-4.6,5.4
				c-1.6,1.7-3.2,3.3-4.8,4.7c-3.7,3.4-7.6,6.5-11.8,9.3c1.5,0.2,2.8,0.6,4.1,1.2c1,0.5,2,1.2,2.9,2.2c0.9,1,1.3,2.2,1.4,3.8
				c-0.1,0.9-0.3,2-0.7,3.4c-0.4,1.4-1,2.9-1.9,4.5c-0.9,1.6-2,3.2-3.3,4.8c-1.4,1.6-3,3-4.9,4.3c-1.9,1.3-4.2,2.3-6.7,3.1
				c-2.6,0.8-5.5,1.2-8.7,1.2c-0.3,0-0.7,0-1.2,0c-0.4,0-0.8,0-1.2-0.1c-1.7-0.2-3.4-0.7-5.2-1.4c-1.8-0.7-3.5-1.7-5.1-2.8
				c-1.6-1.2-3-2.6-4.1-4.2c-1.2-1.6-1.9-3.5-2.3-5.5c-0.1-1.1-0.1-2.2,0-3.4c0.1-2.2,0.5-4.4,1.2-6.7c0.7-2.3,1.5-4.6,2.6-6.9
				c1-2.3,2.2-4.6,3.5-6.9c1.3-2.3,2.6-4.6,3.8-6.8c2-3.4,3.7-6.6,5.2-9.6c1.5-2.9,2.3-5.4,2.4-7.5c0.1-1.5-0.4-2.7-1.3-3.6
				c-0.8-0.8-0.9-1.5-0.2-1.9c0.7-0.5,1.9-0.7,3.6-0.7c0.9,0,2,0.1,3.1,0.4c1.2,0.2,2.3,0.6,3.4,1.2c1.1,0.5,2.1,1.2,3.1,2
				c1,0.8,1.8,1.8,2.4,3L275,82c0.3,0.4,0.5,0.9,0.6,1.2c0.1,0.4,0.1,0.8,0.1,1.3c-0.1,0.6-0.2,1.4-0.6,2.4c-0.3,1-0.9,2.4-1.8,4.1
				l-4.2,7.6c-1.4,2.6-3,5.4-4.7,8.5c-1.7,3.1-3.3,6.1-4.8,8.9c-1.5,2.9-2.7,5.4-3.7,7.7c-1,2.3-1.5,3.9-1.6,4.8
				c-0.1,1.8,0.4,3.3,1.4,4.5c1.1,1.2,2.4,1.7,4,1.4c2.1-0.5,4.1-1.3,6-2.3c1.9-1,3.5-2.2,5-3.4s2.6-2.5,3.4-3.8
				c0.8-1.3,1.2-2.4,1.2-3.3c0-0.7-0.4-1.3-1.2-1.7c-0.8-0.4-1.7-0.7-2.6-0.7c-1.1,0-2.2,0.3-3.4,0.9c-1.1,0.6-2.3,0.9-3.4,0.9
				c-0.7,0-1.2-0.3-1.4-0.9c-0.2-0.6-0.3-1.3-0.1-2.2c0.1-0.9,0.4-1.8,0.8-2.9c0.4-1,0.9-2,1.4-2.9c0.6-0.9,1.2-1.7,1.8-2.4
				s1.3-1.1,1.9-1.2c3.6-0.9,6.9-2.8,9.6-5.6c2.8-2.9,5.1-6.2,7.1-10c1.9-3.8,3.4-7.8,4.6-12c1.1-4.2,1.7-8,1.9-11.5
				c0.2-2.6-0.1-4.9-0.7-6.9c-0.3-0.9-0.6-1.8-1-2.7c-0.4-0.9-0.9-1.7-1.5-2.4c-0.6-0.7-1.4-1.2-2.4-1.7c-1-0.4-2.2-0.6-3.7-0.6
				c-2.4,0-4.8,0.8-7.2,2.4c-2.4,1.6-4.8,3.6-7.2,6c-2.4,2.4-4.7,5.1-6.9,8c-2.2,3-4.4,5.8-6.4,8.6c-1.4,1.9-2.7,3.7-4,5.3
				c-1.3,1.7-2.5,3.2-3.6,4.5c-1.2,1.4-2.2,2.5-3.3,3.3c-1,0.9-2,1.5-2.9,1.7c-1.8,0.4-3.4,0.7-4.8,0.7c-2.4,0-4.5-0.5-6.1-1.4
				c-1.7-1-2.8-2.1-3.4-3.3c-0.7-1.4-0.9-2.5-0.7-3.1c0.2-0.7,0.7-1,1.5-1.2c0.8-0.1,1.7-0.5,2.7-1.2c1-0.8,2-1.8,3.1-3.1
				c1.1-1.3,2.2-2.7,3.4-4.4c1.2-1.7,2.4-3.4,3.6-5.3c2.2-3.2,4.6-6.6,7.2-10.1c2.6-3.5,5.4-6.8,8.4-9.7c3-2.9,6.3-5.3,9.7-7.2
				c3.4-1.9,7.1-2.9,11-2.9C279.3,43,281.3,43.3,283.4,43.8L283.4,43.8z"/>
			<path d="M324.7,90.3c0.1-0.3,0.5-0.4,1.2-0.5c0.7,0,1.6,0.1,2.5,0.3c1,0.2,1.9,0.6,2.9,1.1c1,0.5,1.8,1,2.6,1.7
				c0.7,0.7,1.2,1.4,1.4,2.3c0.2,0.9,0.1,1.8-0.5,2.8c-1.7,3-3.3,6.1-4.7,9.4c-1.4,3.3-2.6,6.3-3.6,9.1c-1,2.7-1.7,5-2.2,6.7
				c-0.5,1.8-0.5,2.6-0.2,2.6c0.6-0.1,1.3-0.6,2.2-1.5c0.9-0.9,1.9-2,2.9-3.3c1-1.3,2-2.6,3.1-4.1c1-1.5,2-2.8,2.9-4
				c0.9-1.2,1.6-2.2,2.2-3c0.6-0.8,1-1.2,1.2-1.2c0.2,0,0.6,0.1,1,0.2c0.5,0.1,0.9,0.3,1.3,0.6c0.4,0.3,0.7,0.6,1,1.1
				c0.2,0.5,0.2,1.1,0,1.8c-0.2,0.5-0.6,1.5-1.3,2.9c-0.7,1.5-1.7,3.1-2.8,5c-1.2,1.9-2.5,3.8-3.9,5.7c-1.5,2-3,3.7-4.7,5.2
				c-1.7,1.5-3.4,2.6-5.2,3.4c-1.8,0.8-3.5,0.9-5.2,0.2c-1-0.3-1.8-0.8-2.4-1.4c-0.6-0.6-1.1-1.3-1.4-1.9c-0.4-0.7-0.6-1.3-0.8-1.9
				c-0.2-0.6-0.3-1-0.3-1.3V127c0.2-0.4,0.7-1.1,1.4-2.2c0.7-1.1,1.2-2.2,1.4-3.3c0-0.1-0.1,0-0.2,0.1c-1.2,1.8-2.5,3.5-3.9,5.3
				c-1.4,1.8-2.9,3.4-4.5,4.7c-1.6,1.4-3.2,2.3-4.8,3s-3.3,0.7-5,0.1c-1-0.3-1.8-0.8-2.4-1.4c-0.6-0.6-1.1-1.3-1.4-1.9
				c-0.4-0.7-0.6-1.3-0.7-1.9c-0.1-0.6-0.2-1-0.3-1.3c-0.2-1-0.1-2.6,0.3-4.7c0.4-2.1,0.9-4.4,1.6-6.9c0.7-2.6,1.5-5.2,2.4-8
				c0.9-2.8,1.8-5.4,2.6-7.8c0.9-2.5,1.6-4.6,2.4-6.5c0.7-1.9,1.3-3.2,1.7-4c0.1-0.3,0.5-0.4,1.2-0.5c0.7,0,1.6,0.1,2.5,0.3
				c1,0.2,1.9,0.6,2.9,1.1c1,0.5,1.8,1,2.5,1.7c0.7,0.7,1.2,1.4,1.4,2.3c0.2,0.9,0.1,1.8-0.5,2.8c-1.7,3-3.2,6.1-4.7,9.4
				c-1.5,3.3-2.7,6.3-3.7,9.1c-1,2.7-1.7,5-2.2,6.7c-0.4,1.8-0.5,2.6-0.2,2.6c0.8-0.2,1.8-0.9,3.2-2.2c1.4-1.3,2.7-2.8,4.1-4.6
				c1.4-1.7,2.7-3.4,4-5.2c1.2-1.8,2.1-3.1,2.7-4.1c0.7-2.2,1.3-4.2,2-6.3c0.7-2,1.4-3.9,2-5.7c0.6-1.7,1.2-3.3,1.7-4.6
				C324,91.8,324.4,90.9,324.7,90.3z"/>
			<path d="M349.4,106.3c-0.4,0.9-0.9,1.9-1.2,2.9c-0.4,1-0.7,1.9-1.1,2.9c0.8-1.3,1.7-2.8,2.7-4.5c1-1.7,2.1-3.5,3.3-5.3
				c1.2-1.8,2.3-3.5,3.5-5.2c1.2-1.7,2.3-3.2,3.4-4.5c1.1-1.3,2.1-2.4,2.9-3.1c0.9-0.8,1.6-1.1,2.2-1.1c0.3,0.1,1,0.2,2,0.6
				c1,0.3,2,0.7,3,1.2c1,0.5,1.8,1,2.4,1.6c0.6,0.6,0.8,1.1,0.4,1.7c-0.3,0.3-0.7,1-1.3,1.9c-0.6,1-1.2,2.1-1.9,3.4
				c-0.7,1.3-1.3,2.7-1.9,4.2c-0.6,1.5-1,3-1.3,4.4c-0.3,1.4-0.3,2.8-0.1,4c0.2,1.2,0.8,2.2,1.7,2.9c0.3,0.2,0.3,0.5,0.2,0.8
				c-0.2,0.3-0.5,0.7-0.9,1c-0.4,0.3-1,0.7-1.7,1c-0.7,0.4-1.4,0.7-2.1,1c-1.2,0.5-2.4,0.9-3.5,1.1c-1.1,0.2-1.8,0.2-2.2-0.1
				c-1.4-1-2.3-2.3-2.5-3.8c-0.2-1.5-0.2-2.9,0.1-4.4c0.3-1.4,0.7-2.7,1.3-3.8c0.6-1.1,0.9-1.8,1.2-2c-1.1,0.9-2.3,2.1-3.6,3.4
				c-1.3,1.3-2.6,2.8-3.8,4.5s-2.4,3.4-3.5,5.3c-1.1,1.8-1.9,3.7-2.4,5.7c-0.5,3.3-0.7,6-0.7,8.1c0,2.1,0,3.1,0,3.2
				c-0.2,0.2-0.6,0.4-1.2,0.4c-0.6,0.1-1.3,0-2.1-0.1c-0.8-0.1-1.5-0.4-2.3-0.7c-0.8-0.3-1.4-0.7-1.9-1.2c-0.6-0.6-1.1-1.8-1.5-3.7
				c-0.4-1.9-0.6-4.1-0.5-6.7c0-2.6,0.3-5.5,0.8-8.6c0.5-3.1,1.4-6.1,2.6-9.1c1.2-2.8,2.2-5.7,3.1-8.6c0.9-2.9,1.3-5.8,1.3-8.5
				c0-0.8,0.2-1.2,0.6-1.4c0.4-0.2,0.9-0.2,1.6,0c0.3,0.1,0.9,0.3,1.8,0.7c0.9,0.3,1.9,0.8,2.9,1.5c1,0.7,1.9,1.5,2.7,2.5
				c0.8,1,1.2,2.2,1.2,3.7c0,1.1-0.3,2.5-0.8,4.3C351.4,101.2,350.6,103.5,349.4,106.3z"/>
			<path d="M393.6,90.2c1.3,0.4,2.2,1.1,2.6,2.1c0.5,1,0.8,2,0.9,3.1c0.3-1,0.5-2,0.7-2.9c0.2-0.9,0.4-1.8,0.5-2.5
				c0.1-0.6,0.4-1,1-1.1c0.6-0.1,1.4-0.1,2.3,0.1c0.9,0.2,1.8,0.5,2.8,1c1,0.5,1.8,1,2.6,1.7c0.8,0.6,1.4,1.3,1.8,2.1
				c0.4,0.7,0.5,1.4,0.3,2.1c-1.4,4-2.8,8-4.1,12.1c-1.4,4.1-2.9,8.1-4.4,12.1c-1.6,4-3.3,7.8-5.1,11.6c-1.8,3.8-3.8,7.3-6,10.6
				c3.3,1.3,5.5,2.7,6.9,4.1c1.3,1.4,2,2.3,2,2.8c0,0.4-0.3,0.8-0.9,1.2c-0.6,0.3-1.3,0.6-2.1,0.7c-0.8,0.2-1.7,0.2-2.6,0.2
				c-0.9,0-1.6-0.2-2.2-0.4c-0.4-0.2-0.9-0.5-1.5-1.1c-0.6-0.6-1.4-1.2-2.5-2c-1.1-0.7-2.6-1.5-4.4-2.2c-1.8-0.7-4.3-1.3-7.3-1.7
				c1.7,0.7,3.5,1.3,5.3,1.9c1.8,0.6,3.4,1.6,4.7,2.8c-2,2-4,3.8-6.1,5.5c-2.1,1.7-4.2,3.1-6.5,4.3c-2.2,1.2-4.6,2.1-7,2.9
				c-2.5,0.7-5.1,1.1-8,1.2c-3.7,0.1-6.9-0.1-9.3-0.5c-2.5-0.5-4.5-1.1-6.1-1.9s-2.7-1.7-3.5-2.7c-0.7-1-1.3-2-1.5-3
				c-0.3-1-0.4-1.9-0.3-2.8c0.1-0.9,0.2-1.5,0.3-2c0.4-1.4,1.1-2.7,2.2-4c1.1-1.3,2.6-2.4,4.5-3.4c1.9-1,4.2-1.8,7-2.4
				c2.8-0.6,6-1,9.8-1.2c3.6-0.2,6.9-0.2,9.9,0c3,0.2,5.7,0.4,8.2,0.8c0.1-0.1,0.2-0.2,0.2-0.3c0-0.1,0.1-0.2,0.1-0.3
				c0.1-0.3,0.4-0.7,1-1.3c0.5-0.6,1.1-1.4,1.6-2.5c0.2-0.3,0.4-0.6,0.7-1c0.3-0.3,0.7-0.7,1.1-1.1c0.4-0.4,0.9-1,1.4-1.8
				c0.6-0.8,1.2-1.8,1.8-3.1l0.5-1.2c-0.9,1.4-1.9,2.6-2.9,3.7c-1,1.1-1.9,2-2.8,2.8c-0.9,0.7-1.8,1.3-2.6,1.6
				c-0.8,0.3-1.6,0.4-2.2,0.2c-2-0.6-3.6-1.3-4.6-2.2c-1-0.9-1.8-1.8-2.2-2.9c-0.4-1-0.6-2.1-0.6-3.2c0-1.1,0.1-2.2,0.2-3.2
				c0.1-2.2,0.4-4.6,1-7.3c0.6-2.7,1.3-5.4,2.3-8.1c1-2.7,2.1-5.3,3.5-7.8c1.4-2.5,2.9-4.6,4.7-6.3c1.8-1.7,3.7-2.9,5.9-3.6
				C388.6,89.4,391,89.4,393.6,90.2z M374.8,143.7c-2-0.3-4.2-0.5-6.8-0.5c-2.5-0.1-5.5,0-8.8,0.1c-3.6,0.2-6.4,0.6-8.6,1.2
				c-2.1,0.6-3.7,1.3-4.9,1.9c-1.1,0.7-1.9,1.4-2.2,2c-0.3,0.6-0.5,1.1-0.5,1.3c0,0.3,0.1,0.7,0.2,1.1c0.2,0.4,0.7,0.8,1.5,1.2
				c0.8,0.4,2.1,0.7,3.8,1c1.7,0.3,4.1,0.4,7.2,0.4c2,0,3.9-0.3,5.7-0.9c1.8-0.6,3.5-1.3,5.2-2.3c1.6-0.9,3.1-2,4.5-3.1
				C372.6,145.9,373.8,144.8,374.8,143.7z M393.7,96.7c-0.8-0.2-1.7,0.4-2.8,1.7c-1.1,1.3-2.2,3-3.3,5c-1.1,2-2.1,4.3-3.1,6.7
				c-1,2.5-1.7,4.7-2.3,6.7c-0.6,2-0.8,3.7-0.8,5c0,1.3,0.5,1.8,1.4,1.6c0.7-0.2,1.5-0.6,2.2-1.3c0.8-0.7,1.5-1.6,2.3-2.6
				c0.7-1,1.4-2.2,2.1-3.5c0.7-1.3,1.3-2.7,1.9-4.1c0.2-0.4,0.3-0.8,0.5-1.1c0.2-0.4,0.3-0.8,0.4-1.2c0.6-1.5,1-3.1,1.4-4.6
				c0.4-1.5,0.7-2.9,0.8-4.1c0.1-1.2,0.2-2.2,0-3C394.5,97.3,394.2,96.8,393.7,96.7z"/>
			<path d="M438.3,114.8c-0.8,0.1-1.8,0.1-2.9,0.2c-1.1,0.1-2.3,0.1-3.4,0.2c-1.2,0.1-2.3,0.2-3.4,0.3c-1.1,0.1-2.1,0.2-2.9,0.3
				c1.1,0.1,1.9,0.3,2.5,0.5c0.6,0.2,1.1,0.4,1.5,0.7c-3.4,3.9-6.1,5.8-8,5.8c-1.3-0.1-2.3-0.3-3.1-0.7c-0.7-0.4-1.2-1-1.4-1.7
				c-0.2-0.7-0.2-1.4-0.1-2.2c0.2-0.8,0.4-1.5,0.8-2.2v-0.1c-0.7,0.7-1.2,1.4-1.4,2.1c-0.2,0.7-0.3,1.4-0.2,2
				c0.1,0.6,0.2,1.2,0.3,1.7c0.2,0.5,0.3,0.8,0.4,1c0,0.4,0,0.6,0,0.8c0,0.1,0,0.3,0,0.6c0,0.3,0,0.6,0.1,1c0.1,0.4,0.2,0.7,0.5,1.1
				c0.2,0.3,0.6,0.6,1.1,0.9c0.5,0.2,1.2,0.4,2.1,0.5c0.8,0.1,1.8-0.2,3.2-0.8c1.4-0.6,2.8-1.4,4.4-2.4c1.6-1,3.2-2.2,4.8-3.5
				c1.7-1.3,3.2-2.6,4.7-4c1.5-1.4,2.7-2.7,3.8-4c1.1-1.3,1.9-2.5,2.3-3.5c0.4-1,0.9-1.5,1.5-1.7c0.6-0.1,1.2,0.1,1.7,0.5
				c0.5,0.5,0.8,1.2,0.9,2.1c0.1,0.9,0,2-0.5,3.1c-0.2,0.4-0.7,1.3-1.5,2.4c-0.8,1.2-1.8,2.6-3.1,4.1c-1.3,1.6-2.8,3.2-4.5,5
				s-3.6,3.4-5.6,4.9c-2,1.5-4.2,2.8-6.5,3.8c-2.3,1-4.6,1.7-7.1,1.9c-0.6,0.1-1.4,0-2.3-0.2c-0.9-0.2-2-0.7-3.1-1.3
				c-1.1-0.7-2.3-1.6-3.6-2.8c-1.2-1.2-2.5-2.8-3.7-4.8c-0.7-1.2-1-3-0.8-5.5c0.2-2.5,0.7-5.2,1.7-8.2c0.9-3,2.2-6.1,3.8-9.2
				c1.6-3.1,3.6-5.9,5.8-8.2c2.2-2.4,4.7-4.2,7.5-5.5c2.8-1.3,5.7-1.6,8.9-0.9c2,0.4,3.6,1.1,4.6,2c1,0.9,1.7,1.8,2,2.9
				c0.3,1,0.4,2,0.3,3.1c-0.1,1-0.2,1.9-0.3,2.6c-0.3,1.8-0.9,3.5-1.7,5.2c-0.8,1.7-1.7,3.4-2.8,5.1c1,0.2,1.8,0.4,2.3,0.7
				c0.4,0.3,0.8,0.7,1.1,1.2c0.3,0.5,0.5,1,0.6,1.4c0.1,0.5,0,0.9-0.1,1.2C439,114.6,438.7,114.8,438.3,114.8z M420.3,113
				c1.1-0.8,2.3-1.5,3.7-2c1.4-0.5,2.7-0.9,4.2-1.2c0.8-1.4,1.6-2.9,2.4-4.5c0.8-1.6,1.5-3,2-4.3c0.5-1.3,0.8-2.4,1-3.3
				c0.1-0.9-0.1-1.3-0.7-1.3c-0.9,0-1.9,0.5-2.9,1.5c-1.1,1-2.2,2.3-3.3,3.8c-1.1,1.6-2.2,3.3-3.3,5.3
				C422.2,109,421.2,111,420.3,113z M423,117.2c0.1,0,0.2-0.1,0.4-0.4c0.2-0.2,0.4-0.5,0.7-0.7c-0.7,0.1-1,0.2-1.1,0.2
				c-0.3,0.3-0.4,0.5-0.3,0.6C422.8,117.2,422.9,117.2,423,117.2z"/>
			<path d="M455.6,106.3c-0.4,0.9-0.9,1.9-1.2,2.9c-0.4,1-0.7,1.9-1.1,2.9c0.8-1.3,1.7-2.8,2.7-4.5c1-1.7,2.1-3.5,3.3-5.3
				c1.2-1.8,2.3-3.5,3.5-5.2c1.2-1.7,2.3-3.2,3.4-4.5c1.1-1.3,2.1-2.4,2.9-3.1c0.9-0.8,1.6-1.1,2.2-1.1c0.3,0.1,1,0.2,2,0.6
				c1,0.3,2,0.7,3,1.2c1,0.5,1.8,1,2.4,1.6c0.6,0.6,0.8,1.1,0.4,1.7c-0.3,0.3-0.7,1-1.3,1.9c-0.6,1-1.2,2.1-1.9,3.4
				c-0.7,1.3-1.3,2.7-1.9,4.2c-0.6,1.5-1,3-1.3,4.4c-0.3,1.4-0.3,2.8-0.1,4c0.2,1.2,0.8,2.2,1.7,2.9c0.3,0.2,0.3,0.5,0.2,0.8
				c-0.2,0.3-0.5,0.7-0.9,1c-0.4,0.3-1,0.7-1.7,1c-0.7,0.4-1.4,0.7-2.1,1c-1.2,0.5-2.4,0.9-3.5,1.1c-1.1,0.2-1.8,0.2-2.2-0.1
				c-1.4-1-2.3-2.3-2.5-3.8c-0.2-1.5-0.2-2.9,0.1-4.4c0.3-1.4,0.7-2.7,1.3-3.8c0.6-1.1,0.9-1.8,1.2-2c-1.1,0.9-2.3,2.1-3.6,3.4
				c-1.3,1.3-2.6,2.8-3.8,4.5s-2.4,3.4-3.5,5.3c-1.1,1.8-1.9,3.7-2.4,5.7c-0.5,3.3-0.7,6-0.7,8.1c0,2.1,0,3.1,0,3.2
				c-0.2,0.2-0.6,0.4-1.2,0.4c-0.6,0.1-1.3,0-2.1-0.1c-0.8-0.1-1.5-0.4-2.3-0.7c-0.8-0.3-1.4-0.7-1.9-1.2c-0.6-0.6-1.1-1.8-1.5-3.7
				c-0.4-1.9-0.6-4.1-0.5-6.7c0-2.6,0.3-5.5,0.8-8.6c0.5-3.1,1.4-6.1,2.6-9.1c1.2-2.8,2.2-5.7,3.1-8.6c0.9-2.9,1.3-5.8,1.3-8.5
				c0-0.8,0.2-1.2,0.6-1.4c0.4-0.2,0.9-0.2,1.6,0c0.3,0.1,0.9,0.3,1.8,0.7c0.9,0.3,1.9,0.8,2.9,1.5c1,0.7,1.9,1.5,2.7,2.5
				c0.8,1,1.2,2.2,1.2,3.7c0,1.1-0.3,2.5-0.8,4.3C457.5,101.2,456.7,103.5,455.6,106.3z"/>
		</g>
		<g>
			<g>
				<path d="M407.9,139c1.6-0.8,3.3-1.2,5.2-1.2c2.8,0,4.9,0.8,6.4,2.4c1.4,1.6,2.1,3.7,1.9,6.3h-4c0-1.6-0.3-2.8-1-3.8
					c-0.7-1-1.9-1.5-3.5-1.5c-1.8,0-3.4,0.6-4.7,1.9c-1.3,1.3-2.2,3-2.7,5.2c-0.2,0.8-0.3,1.6-0.3,2.4c0,1.6,0.4,2.9,1.2,3.8
					c0.8,0.9,1.9,1.4,3.4,1.4c1.6,0,3-0.5,4.2-1.5c1.2-1,2.1-2.3,2.6-4h3.9c-0.4,1.8-1.2,3.4-2.3,4.7s-2.4,2.3-3.9,3
					c-1.5,0.7-3.1,1-4.8,1c-2.6,0-4.7-0.7-6.1-2.2c-1.5-1.4-2.2-3.5-2.2-6c0-1.1,0.1-2.2,0.4-3.4c0.4-1.9,1.2-3.6,2.3-5.1
					C405,140.9,406.3,139.8,407.9,139z"/>
				<path d="M432.6,139.9c1.5-1.2,3.6-1.8,6.3-1.8l-0.8,3.6c-2.1,0.1-3.8,0.5-5.2,1.1c-1.3,0.6-2.4,1.5-3.3,2.7
					c-0.8,1.2-1.5,2.9-2,4.9l-1.7,8.1H422l4.2-20.1h3.8l-1.5,7.6h0.2C429.7,143.1,431,141.1,432.6,139.9z"/>
				<path d="M446.2,147.7c2.6-0.2,4.6-0.5,5.9-1.1s2.1-1.4,2.4-2.6c0.1-0.3,0.1-0.5,0.1-0.6c0-1.7-1.5-2.5-4.5-2.5
					c-2,0-3.6,0.4-4.7,1.3c-1.2,0.8-2,2.2-2.5,3.9h-3.9c0.6-2.8,1.9-4.9,3.9-6.3c2-1.4,4.5-2.1,7.7-2.1c2.6,0,4.6,0.5,5.9,1.5
					c1.3,1,2,2.3,2,3.9c0,0.5-0.1,1-0.2,1.5l-2.9,13.8h-3.7l1.2-6.5l-0.2,0c-0.8,2.4-2,4.2-3.6,5.4c-1.6,1.2-3.4,1.8-5.5,1.8
					c-1.9,0-3.3-0.5-4.4-1.4s-1.5-2.1-1.5-3.5c0-1.8,0.7-3.3,2.1-4.5C441.2,148.6,443.3,147.9,446.2,147.7z M448.8,155.2
					c1.1-0.6,2.1-1.5,2.8-2.4c0.8-1,1.3-2,1.6-3.1l0.9-3.8l-0.2,0c-0.3,0.8-0.7,1.5-1.3,2c-0.5,0.5-1.3,1-2.4,1.3
					c-1,0.4-2.5,0.7-4.3,0.9c-2.8,0.4-4.2,1.5-4.2,3.3c0,1.8,1.2,2.7,3.7,2.7C446.5,156.1,447.6,155.8,448.8,155.2z"/>
				<path d="M459.3,155.9l15.1-14.3l0-0.2c-1.6,0.1-4,0.2-7.1,0.2h-4.5l0.7-3.2h16.8l-0.5,2.7l-14.9,14.1l0,0.2
					c2.5-0.1,4.7-0.2,6.6-0.2h5.3l-0.7,3.2h-17.2L459.3,155.9z"/>
				<path d="M494.2,142.8l2.5-4.4h4.3l-12.4,20.4c-1.6,2.6-3.1,4.4-4.6,5.5c-1.5,1.1-3.3,1.6-5.5,1.6c-0.4,0-1.2-0.1-2.3-0.2
					l0.7-3.3c0.8,0.1,1.3,0.1,1.6,0.1c0.9,0,1.6-0.1,2.2-0.3s1.1-0.6,1.5-1c0.5-0.5,1.1-1.2,1.8-2.2l0.4-0.6l-3.4-20h4.2l0.6,4.5
					l0.3,2.2c0.6,4.9,1,8,1.2,9.4l0.2,0C490.4,149.5,492.7,145.6,494.2,142.8z"/>
			</g>
		</g>
	</g>
</g>
</svg>
